<?xml version="1.0" encoding="UTF-8"?>
<svg version="1.1" xmlns="http://www.w3.org/2000/svg" width="491" height="508">
<path d="M0 0 C0 0.66 0 1.32 0 2 C0.56460938 2.21140625 1.12921875 2.4228125 1.7109375 2.640625 C4.8309525 4.49346667 6.46500153 6.84592178 8.625 9.75 C9.40101563 10.77609375 10.17703125 11.8021875 10.9765625 12.859375 C15.26576571 19.51674832 15.36507668 25.53957837 15.375 33.25 C15.39949219 34.23613281 15.42398438 35.22226563 15.44921875 36.23828125 C15.49053775 46.69198849 12.48689057 54.41793518 5.1875 61.875 C4.69185547 62.41640625 4.19621094 62.9578125 3.68554688 63.515625 C-3.48146343 71.07926522 -11.76233834 73.7149823 -22 75 C-31.77465381 75.17528388 -41.9332928 73.98497631 -50 68 C-50 67.34 -50 66.68 -50 66 C-50.598125 65.73574219 -51.19625 65.47148437 -51.8125 65.19921875 C-58.26562982 61.66152079 -62.36078175 53.95897838 -65.08203125 47.38671875 C-67.92025163 36.91549716 -67.35718252 24.15616701 -62.47265625 14.46875 C-61.98667969 13.6540625 -61.50070313 12.839375 -61 12 C-60.56558594 11.2678125 -60.13117188 10.535625 -59.68359375 9.78125 C-54.06831181 1.46231379 -46.41330686 -4.42367422 -36.578125 -6.5390625 C-35.30195313 -6.76722656 -35.30195313 -6.76722656 -34 -7 C-32.72125 -7.268125 -31.4425 -7.53625 -30.125 -7.8125 C-19.78315294 -8.82973086 -8.58874856 -5.72583237 0 0 Z " fill="#FE8309" transform="translate(272,220)"/>
<path d="M0 0 C7.0915833 5.25574442 13.24026824 11.05736315 15 20 C15.78437641 29.4896687 14.81056908 37.25953031 9.48828125 45.27734375 C8.99714844 45.84582031 8.50601563 46.41429687 8 47 C7.34 47 6.68 47 6 47 C6 47.66 6 48.32 6 49 C-0.25471754 54.32809272 -6.26408984 56.5614898 -14.375 57.3125 C-19.77553457 56.84693668 -25.13311229 55.43344386 -30 53 C-30 52.34 -30 51.68 -30 51 C-30.74894531 50.75765625 -31.49789063 50.5153125 -32.26953125 50.265625 C-35.3691211 48.82890524 -36.64038047 47.45495794 -38.6875 44.75 C-39.26886719 44.00234375 -39.85023438 43.2546875 -40.44921875 42.484375 C-44.97782164 35.22948473 -44.74734168 27.29027869 -44 19 C-43.01825159 15.74742483 -41.76115066 12.90118122 -40 10 C-39.34 10 -38.68 10 -38 10 C-37.75636719 9.41476563 -37.51273437 8.82953125 -37.26171875 8.2265625 C-34.38769501 3.15475589 -28.8751466 -0.20132645 -23.625 -2.4375 C-15.54594315 -3.69114675 -7.35540847 -4.02011118 0 0 Z " fill="#2DFECF" transform="translate(359,131)"/>
<path d="M0 0 C7.06479758 4.94535831 13.31054505 11.70604525 14.9921875 20.39453125 C15.77124908 29.81989922 15.25470955 38.05944399 9.19140625 45.6484375 C3.6013496 51.54241956 -2.4122961 55.97345042 -10.70703125 56.59765625 C-20.39200671 56.74957743 -26.7148533 55.62895589 -34.2578125 49.33203125 C-41.3937879 42.40724515 -44.25909296 36.66118217 -44.4453125 26.64453125 C-44.35936415 21.81120025 -43.73393698 17.91434315 -42.0078125 13.39453125 C-41.3478125 13.39453125 -40.6878125 13.39453125 -40.0078125 13.39453125 C-39.7809375 12.67265625 -39.5540625 11.95078125 -39.3203125 11.20703125 C-36.6766846 5.54211432 -31.09259884 0.63825291 -25.3046875 -1.6953125 C-17.23542387 -3.92296466 -7.51097036 -4.01057474 0 0 Z " fill="#2BFECF" transform="translate(359.0078125,322.60546875)"/>
<path d="M0 0 C6.58666212 4.46044137 11.18089358 10.28614009 13.609375 17.9140625 C15.43820839 27.68003283 13.76568443 35.23962134 8.421875 43.4140625 C3.0088479 50.89964502 -2.86437092 54.50175683 -12 56 C-19.57478815 56.87401402 -27.704961 54.19669267 -34 50 C-34 49.34 -34 48.68 -34 48 C-35.32 47.34 -36.64 46.68 -38 46 C-38 45.34 -38 44.68 -38 44 C-38.66 44 -39.32 44 -40 44 C-44.38458859 34.6394132 -46.64042748 26.24474317 -43.75 16.0078125 C-40.88940652 8.34976537 -35.84315407 2.66580446 -28.71484375 -1.2578125 C-18.90248538 -5.70525227 -9.39243002 -5.27349061 0 0 Z " fill="#2AFECF" transform="translate(164,132)"/>
<path d="M0 0 C0.66773438 0.30550781 1.33546875 0.61101562 2.0234375 0.92578125 C8.69103492 4.43840441 13.23517951 10.8594473 15.671875 17.95703125 C17.38436625 28.61932797 15.74154786 37.27763268 9.875 46.25 C4.66231225 51.23604915 -1.59900743 55.69162531 -9 56 C-9.73734375 56.06058594 -10.4746875 56.12117188 -11.234375 56.18359375 C-19.9197295 56.62865074 -27.5746238 53.75252804 -34.46875 48.484375 C-40.53096868 42.60773445 -43.29135282 35.10850178 -43.4375 26.8125 C-43.44059728 18.35692569 -41.00416635 12.65371583 -35.6875 6.1875 C-25.01266618 -2.50131823 -12.95317377 -6.52989212 0 0 Z " fill="#2AFECF" transform="translate(358,227)"/>
<path d="M0 0 C0 0.66 0 1.32 0 2 C0.66 2 1.32 2 2 2 C3.4375 3.7578125 3.4375 3.7578125 5 6.125 C5.515625 6.89070313 6.03125 7.65640625 6.5625 8.4453125 C10.80567191 15.98616693 11.39057684 24.50534232 9.27734375 32.85546875 C6.06434733 41.45381141 1.17971422 46.81539716 -7 51 C-14.39735059 53.98739159 -23.2803647 54.44861596 -30.75 51.4375 C-39.62808669 46.86149888 -44.93771616 40.69583156 -48.3125 31.375 C-50.26105348 22.13277843 -48.68025674 13.39210258 -43.8046875 5.37890625 C-41.02065112 1.70904012 -37.96082805 -0.69864931 -34 -3 C-32.989375 -3.61875 -31.97875 -4.2375 -30.9375 -4.875 C-20.05529019 -8.9744626 -9.40583411 -5.88521464 0 0 Z " fill="#29FECE" transform="translate(168,326)"/>
<path d="M0 0 C7.46698111 5.2010576 11.78499922 10.73458554 13.5234375 19.69921875 C14.78323029 29.73556794 12.60022019 37.59966971 7 46 C6.34 46 5.68 46 5 46 C5 46.66 5 47.32 5 48 C4.34 48 3.68 48 3 48 C3 48.66 3 49.32 3 50 C-4.04550358 54.40343974 -10.56517743 56.73989672 -19 56 C-24.30784168 54.64044757 -29.17446773 52.59836353 -34 50 C-34 49.34 -34 48.68 -34 48 C-34.66 48 -35.32 48 -36 48 C-42.53982548 40.47303105 -45.51195877 33.27490563 -45.25390625 23.296875 C-44.53465031 16.7903751 -42.05175802 11.09737299 -38 6 C-37.34 6 -36.68 6 -36 6 C-35.64035156 5.09314453 -35.64035156 5.09314453 -35.2734375 4.16796875 C-33.7210994 1.52518455 -32.31809563 0.73062511 -29.625 -0.6875 C-28.85414063 -1.10386719 -28.08328125 -1.52023438 -27.2890625 -1.94921875 C-18.39121858 -6.03372389 -8.34006898 -4.77536207 0 0 Z " fill="#26FECE" transform="translate(262,132)"/>
<path d="M0 0 C1.0725 0.53625 2.145 1.0725 3.25 1.625 C8.92824347 6.52893754 13.48885787 14.46509949 14.3359375 21.98046875 C14.45617032 31.85158317 12.70959947 40.05603169 5.84375 47.46484375 C-2.11233559 54.08929637 -10.95516601 55.7369851 -21 55 C-28.94690962 53.49721901 -35.14392709 49.39641102 -40.3125 43.25 C-44.82772223 34.55401645 -46.34015909 26.47511064 -43.8125 17 C-40.93006049 8.37912587 -37.50613935 3.57096953 -29.40625 -0.8125 C-19.25708615 -5.82117826 -9.97779433 -5.03289097 0 0 Z " fill="#2AFECF" transform="translate(164,228)"/>
<path d="M0 0 C7.11408545 4.2070007 12.99206274 9.90937474 15.5 17.9375 C16.80476334 25.04654141 16.81860368 31.09761914 14.5 37.9375 C13.9121875 39.7009375 13.9121875 39.7009375 13.3125 41.5 C9.58701264 48.56557948 3.34995352 54.08624889 -4.3515625 56.5234375 C-12.05230012 58.00757966 -20.50406303 57.66176959 -27.5 53.9375 C-30.40889097 51.83257387 -33.11751503 49.63159063 -35.5 46.9375 C-35.5 46.2775 -35.5 45.6175 -35.5 44.9375 C-36.16 44.9375 -36.82 44.9375 -37.5 44.9375 C-41.71890784 37.20610609 -44.13979357 29.40084221 -41.8984375 20.56640625 C-40.69354496 16.86044891 -39.29332791 13.39940257 -37.5 9.9375 C-36.84 9.9375 -36.18 9.9375 -35.5 9.9375 C-35.2525 9.36 -35.005 8.7825 -34.75 8.1875 C-32.06129768 3.34783583 -28.35247713 0.79131066 -23.3203125 -1.29296875 C-15.66223811 -3.38249874 -7.26260612 -3.34856038 0 0 Z " fill="#27FECE" transform="translate(259.5,322.0625)"/>
<path d="M0 0 C4.4272946 2.5523023 7.41366458 5.41745359 9.65625 10.08203125 C11.06750146 15.80021309 10.88657182 20.55932961 8.65625 26.08203125 C5.9466069 30.39738878 2.50723735 33.43536582 -2.34375 35.08203125 C-8.17354922 35.75952585 -12.96208983 35.51057826 -18.34375 33.08203125 C-18.34375 32.42203125 -18.34375 31.76203125 -18.34375 31.08203125 C-19.00375 31.08203125 -19.66375 31.08203125 -20.34375 31.08203125 C-20.34375 30.42203125 -20.34375 29.76203125 -20.34375 29.08203125 C-21.00375 29.08203125 -21.66375 29.08203125 -22.34375 29.08203125 C-25.28111801 23.7493846 -27.09161887 19.40102621 -26.01171875 13.28515625 C-24.43017425 8.06883404 -21.7620122 3.69460271 -17.21875 0.58203125 C-11.84343375 -2.02950584 -5.54119558 -2.1703016 0 0 Z " fill="#30FED0" transform="translate(156.34375,56.91796875)"/>
<path d="M0 0 C4.89438792 3.75615817 8.20042786 7.93811044 9.16796875 14.14453125 C9.35574278 21.39618544 8.17325001 25.32180127 3.25 30.75 C-1.44467374 34.98665679 -5.18804082 35.62013784 -11.41796875 35.51171875 C-17.28664756 34.60092514 -21.4511318 31.15653923 -25.3125 26.8125 C-27.37051911 21.15294746 -27.89878175 16.04934371 -26.1875 10.25 C-20.03915049 -0.20219417 -11.51790815 -3.25978533 0 0 Z " fill="#33FED1" transform="translate(255.3125,56.9375)"/>
<path d="M0 0 C5.10090038 2.36827518 9.59641539 6.65299054 11.8125 11.9375 C12.43380479 18.77185268 12.0926774 24.12526624 7.640625 29.703125 C3.46950162 34.13225601 0.23949103 35.85781009 -5.9375 36.25 C-9.57185461 36.1672443 -12.61071386 35.35571445 -16 34 C-16 33.34 -16 32.68 -16 32 C-16.5775 31.814375 -17.155 31.62875 -17.75 31.4375 C-22.02962472 28.70329532 -23.58940417 24.3600987 -25 19.6875 C-25 14.55237259 -23.15573248 10.59827915 -21 6 C-20.34 6 -19.68 6 -19 6 C-19 5.34 -19 4.68 -19 4 C-13.59563841 -1.24995126 -7.18453524 -0.8980669 0 0 Z " fill="#33FED1" transform="translate(81,236)"/>
<path d="M0 0 C3.5466729 3.90134019 4.71465008 7.46389668 5.1171875 12.609375 C4.91782478 16.67637456 3.5603552 20.27101554 2 24 C1.34 24 0.68 24 0 24 C0 24.66 0 25.32 0 26 C-0.66 26 -1.32 26 -2 26 C-2 26.66 -2 27.32 -2 28 C-7.47876969 31.55379655 -12.67247099 31.82772909 -19 31 C-23.86255549 29.33743507 -27.23698595 26.29802186 -30 22 C-32.40592423 16.9590159 -32.55223176 12.31168323 -31 7 C-28.25187829 2.12948276 -24.59950989 -2.58590683 -19.25 -4.6875 C-11.3448183 -5.7854419 -6.46230853 -4.80856816 0 0 Z " fill="#32FED1" transform="translate(162,420)"/>
<path d="M0 0 C4.59047821 2.63527453 7.99478431 6.17706863 10.375 10.9375 C11.06836032 18.42806481 10.84791625 23.78724015 6.375 29.9375 C5.715 29.9375 5.055 29.9375 4.375 29.9375 C4.375 30.5975 4.375 31.2575 4.375 31.9375 C-1.11352539 35.49762457 -6.28891927 35.74910859 -12.625 34.9375 C-17.47147756 33.41561546 -20.95459029 30.19713882 -23.6796875 25.9921875 C-26.12257191 20.682447 -26.13101328 15.65232277 -24.5 10.125 C-18.81552887 0.46139909 -10.71436502 -3.14041733 0 0 Z " fill="#32FED1" transform="translate(253.625,416.0625)"/>
<path d="M0 0 C4.51218458 3.17903914 7.99746325 6.09458338 9.453125 11.59375 C10.21484275 17.62125568 9.75918791 21.67142115 6.75 26.9375 C6.37875 27.659375 6.0075 28.38125 5.625 29.125 C2.00779718 32.62162939 -2.54279669 34.78409181 -7.59375 35.0703125 C-13.77418805 34.54116541 -19.3511853 33.09291128 -23.5625 28.3125 C-26.50208705 22.4333259 -28.07552046 17.56666548 -26.0625 11.125 C-24.84804576 8.05124857 -23.61760096 5.30510096 -21.25 2.9375 C-20.59 2.9375 -19.93 2.9375 -19.25 2.9375 C-19.25 2.2775 -19.25 1.6175 -19.25 0.9375 C-12.93141903 -1.72295515 -6.51256048 -2.12910631 0 0 Z " fill="#31FED0" transform="translate(83.25,141.0625)"/>
<path d="M0 0 C5.08813421 3.0910001 7.91575144 5.963787 9.3984375 11.89453125 C10.09208008 18.12726168 9.83302228 23.48245826 6.3984375 28.89453125 C2.11866202 33.04545327 -2.11190737 35.28279646 -8.1015625 35.64453125 C-14.11536551 35.28978444 -18.23629505 32.95000553 -22.6015625 28.89453125 C-26.16252554 24.36239647 -26.17122187 19.46063787 -26.01171875 13.87109375 C-25.27744631 8.54237372 -23.01849217 5.10429552 -19.09765625 1.51953125 C-13.46518028 -2.38927135 -6.21728975 -2.64188138 0 0 Z " fill="#2DFECF" transform="translate(352.6015625,57.10546875)"/>
<path d="M0 0 C2.79324931 1.04746849 4.58446181 2.20239018 7 4 C7 4.66 7 5.32 7 6 C7.66 6 8.32 6 9 6 C11.71387535 12.34770844 13.27758621 18.27219927 11 25 C8.06308367 29.34977585 5.06811237 33.31062921 0 35 C-2.1216468 35.14554833 -4.24856706 35.22080412 -6.375 35.25 C-7.49648437 35.27578125 -8.61796875 35.3015625 -9.7734375 35.328125 C-14.67935785 34.82921785 -17.1834414 32.77857913 -20.6875 29.4375 C-23.81288175 25.43899572 -24.82168335 21.016125 -25 16 C-24.04044823 10.31193537 -21.37480362 6.73458846 -17 3 C-16.41734375 2.46890625 -15.8346875 1.9378125 -15.234375 1.390625 C-10.73384829 -1.41040212 -5.0990834 -0.58787976 0 0 Z " fill="#32FED0" transform="translate(81,332)"/>
<path d="M0 0 C4.0503038 4.33961121 5.75945613 8.41917511 6 14.3125 C5.7977979 19.26645152 4.72218594 23.54054856 1.265625 27.28515625 C-2.84377577 30.91795126 -6.33637979 32.62373887 -11.75 33.125 C-17.80627446 32.60290737 -21.77118457 30.80807018 -25.75 26.25 C-30.35583817 20.52348998 -29.97581927 15.00516503 -29.375 7.8125 C-28.15016714 3.51820647 -25.75593204 0.79432654 -22 -1.5625 C-14.54850025 -4.90282747 -6.77364981 -5.10551217 0 0 Z " fill="#30FED0" transform="translate(430.375,239.1875)"/>
<path d="M0 0 C3.9851667 3.35442089 5.68390741 7.11030287 6.27734375 12.30078125 C6.48639068 17.8112582 5.84887949 22.03190487 3 26.875 C-0.66237177 30.82461662 -4.03002104 32.57153481 -9.33203125 33.11328125 C-16.48023222 33.32716443 -20.18141218 31.90353517 -25.8125 27.4375 C-29.96191841 21.97773894 -29.69197027 15.39681983 -29 8.875 C-27.31881288 3.50666385 -23.87703661 0.51672816 -19 -2.125 C-12.89718935 -4.1292915 -5.41522119 -3.51007941 0 0 Z " fill="#2DFECF" transform="translate(356,418.125)"/>
<path d="M0 0 C0 0.66 0 1.32 0 2 C0.99 2 1.98 2 3 2 C7.04360775 7.5988415 7.65966136 13.26045982 7 20 C6.20103879 22.81029959 5.17301188 25.31184778 4 28 C3.34 28 2.68 28 2 28 C2 28.66 2 29.32 2 30 C-3.82933614 33.99725907 -10.14079394 33.75263109 -17 33 C-21.25613676 31.76292219 -23.60573412 29.47514094 -26.4375 26.0625 C-29.07431233 20.84545929 -28.61726016 14.67018054 -28 9 C-26.9765625 6.1015625 -26.9765625 6.1015625 -26 4 C-25.34 4 -24.68 4 -24 4 C-24 3.34 -24 2.68 -24 2 C-16.130586 -2.7513443 -8.56537885 -3.85827876 0 0 Z " fill="#2AFECF" transform="translate(429,334)"/>
<path d="M0 0 C4.19130746 4.30458604 6.07707896 8.34508834 6.3125 14.3125 C6.18146315 18.93733015 5.41808833 23.00607883 3 27 C-1.007763 30.3843332 -5.6138134 33.11812279 -11.015625 32.9296875 C-14.39673489 32.54148599 -17.73137581 31.95334872 -21 31 C-21 30.34 -21 29.68 -21 29 C-21.598125 28.9175 -22.19625 28.835 -22.8125 28.75 C-25.64685403 27.77822147 -26.4454043 26.51696446 -28 24 C-30.07099029 17.78702914 -30.07695301 10.43457951 -27.3125 4.4375 C-25.04757664 0.57992735 -22.4224763 -1.29281748 -18.11328125 -2.55078125 C-11.58362766 -3.93878525 -5.85381585 -3.32864038 0 0 Z " fill="#31FED0" transform="translate(430,143)"/>
<path d="M0 0 C3.10039543 1.75494081 5.48825667 3.48825667 8 6 C8.62342775 10.81023729 9.32944378 16.55362576 6.94921875 20.93359375 C3.83599979 24.02844564 1.0243961 25.18599609 -3.25 25.375 C-6.6887505 25.33623792 -8.71939668 24.95342583 -11.4375 22.8125 C-14.39643327 19.56489032 -15.96379339 17.53963529 -16.02734375 13.08203125 C-15.67689397 8.29255094 -14.53400831 5.43303665 -11 2 C-7.51335549 -0.52481154 -4.20248882 -0.43474022 0 0 Z " fill="#3EFED3" transform="translate(250,474)"/>
<path d="M0 0 C3.17692053 1.51625753 5.83813458 3.21265105 8 6 C8.93567657 11.91035703 9.21264228 17.29574599 5.6875 22.25 C1.37618684 25.05736671 -1.91813514 25.35047344 -7 25 C-10.64950902 23.34113226 -13.08559854 21.5416427 -15 18 C-16.01513329 13.50440971 -16.36727219 11.12342083 -14.9375 6.75 C-10.96042207 1.10511519 -6.86277166 -0.87344367 0 0 Z " fill="#32FED0" transform="translate(250,8)"/>
<path d="M0 0 C1.43859375 -0.00773438 1.43859375 -0.00773438 2.90625 -0.015625 C5.5 0.25 5.5 0.25 8.5 2.25 C8.5 2.91 8.5 3.57 8.5 4.25 C9.16 4.25 9.82 4.25 10.5 4.25 C12.83991708 7.90612044 12.87437949 10.98207376 12.5 15.25 C10.35448348 20.21856457 7.17378598 21.91310701 2.5 24.25 C-3.10381974 24.90160695 -5.99983724 23.36549729 -10.5 20.25 C-13.10966548 16.12811114 -13.20251436 11.9898559 -12.5 7.25 C-9.24564004 1.97569247 -6.15665706 -0.03310031 0 0 Z " fill="#3DFED3" transform="translate(21.5,241.75)"/>
<path d="M0 0 C3.45658479 2.04573386 4.7785359 3.66780385 7 7 C7.265625 9.12109375 7.265625 9.12109375 7.25 11.4375 C7.25515625 12.19933594 7.2603125 12.96117187 7.265625 13.74609375 C6.9659274 16.28911606 6.37497812 17.84450625 5 20 C0.21754733 23.37584894 -3.01184605 24.85545056 -9 24 C-11.88197372 23.16989804 -13.91680639 22.18372306 -16 20 C-18.02574393 15.39603651 -18.69829649 10.82332972 -16.875 6.0625 C-12.67002622 -0.80562385 -7.56975166 -1.03325987 0 0 Z " fill="#3CFED3" transform="translate(477,242)"/>
<path d="M0 0 C0 0.33 0 0.66 0 1 C-4.52046668 1.25113704 -4.52046668 1.25113704 -6.89453125 0.0078125 C-10.45931116 -1.69852 -14.12713685 -1.36785259 -18 -1 C-19.6792238 -0.36562656 -21.35008418 0.29289322 -23 1 C-25.13671875 0.55859375 -25.13671875 0.55859375 -27 0 C-17.64103999 -4.23801963 -9.35896001 -4.23801963 0 0 Z " fill="#CFFEF4" transform="translate(260,131)"/>
<path d="M0 0 C0.33 0.66 0.66 1.32 1 2 C-4.78629225 5.96774326 -11.18270307 5.67820654 -18 5 C-20.3984375 3.98046875 -20.3984375 3.98046875 -22 3 C-19.50935112 2.31292445 -17.62113708 2 -15 2 C-15 2.66 -15 3.32 -15 4 C-13.06115111 3.71743908 -11.12394039 3.4236207 -9.1875 3.125 C-8.10855469 2.96257812 -7.02960938 2.80015625 -5.91796875 2.6328125 C-2.82678207 2.14867662 -2.82678207 2.14867662 0 0 Z " fill="#B7FEED" transform="translate(430,362)"/>
<path d="M0 0 C0.66 0.33 1.32 0.66 2 1 C1.2575 1.86625 0.515 2.7325 -0.25 3.625 C-2.07137597 5.79207623 -3.67741526 7.98165815 -5.1875 10.375 C-5.785625 11.24125 -6.38375 12.1075 -7 13 C-7.66 13 -8.32 13 -9 13 C-9.33 13.66 -9.66 14.32 -10 15 C-9.38765415 11.66196837 -8.19402068 9.60869834 -6.125 6.9375 C-5.61195313 6.26589844 -5.09890625 5.59429687 -4.5703125 4.90234375 C-3.12963875 3.15704993 -1.63051076 1.56704776 0 0 Z " fill="#FECD9E" transform="translate(220,221)"/>
<path d="M0 0 C0.99 0.33 1.98 0.66 3 1 C5.63804589 0.60602665 5.63804589 0.60602665 8 0 C8 1.32 8 2.64 8 4 C7.67 4.33 7.34 4.66 7 5 C7.66 5.66 8.32 6.32 9 7 C6.83125748 6.49396008 5.00032373 6.00016187 3 5 C3 4.34 3 3.68 3 3 C2.34 3 1.68 3 1 3 C0.67 2.01 0.34 1.02 0 0 Z " fill="#6EFEDD" transform="translate(225,177)"/>
<path d="M0 0 C2.4375 1 2.4375 1 4 2 C0.93652871 3.53173564 -1.68558485 2.52332871 -5 2 C-5.99 2 -6.98 2 -8 2 C-8 2.66 -8 3.32 -8 4 C-9.98 4.99 -11.96 5.98 -14 7 C-12.98929671 4.3354186 -12.0600516 3.04804128 -9.8125 1.25 C-6.29752155 -0.31221264 -3.81344505 -0.34667682 0 0 Z " fill="#BAFEEF" transform="translate(250,8)"/>
<path d="M0 0 C4.70941985 0.46170783 8.24046771 1.01448906 12 4 C12.8125 6.1875 12.8125 6.1875 13 8 C12.4225 7.34 11.845 6.68 11.25 6 C9.00346023 3.55709077 9.00346023 3.55709077 5 4 C4.67 4.66 4.34 5.32 4 6 C3.34 6 2.68 6 2 6 C2 4.68 2 3.36 2 2 C1.34 1.34 0.68 0.68 0 0 Z " fill="#62FEDB" transform="translate(245,9)"/>
<path d="M0 0 C-4.5 4 -4.5 4 -9 4 C-8.67 4.99 -8.34 5.98 -8 7 C-9.65 7.66 -11.3 8.32 -13 9 C-11.21934529 4.84513901 -8.74993989 2.11359811 -4.9375 -0.3125 C-3 -1 -3 -1 0 0 Z " fill="#99FEE6" transform="translate(237,323)"/>
<path d="M0 0 C0.66 0.33 1.32 0.66 2 1 C0.09179928 6.57781748 -3.07932886 8.07419554 -8 11 C-7 9 -6 7 -5 5 C-4.34 5 -3.68 5 -3 5 C-2.690625 4.360625 -2.38125 3.72125 -2.0625 3.0625 C-1 1 -1 1 0 0 Z " fill="#86FEE3" transform="translate(229,133)"/>
<path d="M0 0 C0.66 0.33 1.32 0.66 2 1 C1.67 1.66 1.34 2.32 1 3 C0.34 3 -0.32 3 -1 3 C-1 4.32 -1 5.64 -1 7 C-2.65 7.66 -4.3 8.32 -6 9 C-5.52797514 4.75177626 -3.03344482 2.80010291 0 0 Z " fill="#8BFEE4" transform="translate(325,231)"/>
<path d="M0 0 C4.2742558 1.5830577 6.26531794 4.50568404 9 8 C8.67 8.66 8.34 9.32 8 10 C3.125 8.25 3.125 8.25 2 6 C2.66 6 3.32 6 4 6 C2.68 4.02 1.36 2.04 0 0 Z " fill="#FFC081" transform="translate(272,222)"/>
<path d="M0 0 C0.66 0.66 1.32 1.32 2 2 C1.15695312 1.97679687 0.31390625 1.95359375 -0.5546875 1.9296875 C-1.65039062 1.91164062 -2.74609375 1.89359375 -3.875 1.875 C-4.96554687 1.85179687 -6.05609375 1.82859375 -7.1796875 1.8046875 C-10.1371051 1.69939466 -10.1371051 1.69939466 -12 4 C-14.125 3.625 -14.125 3.625 -16 3 C-11.2994229 -0.89013277 -5.81793397 -0.72138634 0 0 Z " fill="#CFFEF4" transform="translate(350,56)"/>
<path d="M0 0 C2.64 0.33 5.28 0.66 8 1 C6.71034824 2.37562854 5.37310707 3.70766393 4 5 C3.34 5 2.68 5 2 5 C2 4.34 2 3.68 2 3 C1.01 2.67 0.02 2.34 -1 2 C-0.67 1.34 -0.34 0.68 0 0 Z " fill="#60FEDA" transform="translate(257,371)"/>
<path d="M0 0 C-0.0625 1.75 -0.0625 1.75 -1 4 C-3.24164322 5.59501537 -5.53566643 6.74543018 -8 8 C-6.48291727 4.46014029 -4.24676932 0 0 0 Z " fill="#88FEE3" transform="translate(132,134)"/>
<path d="M0 0 C1.32 0 2.64 0 4 0 C5.33333333 2.66666667 6.66666667 5.33333333 8 8 C4.63820226 6.55922954 2.40843732 4.75249979 0 2 C0 1.34 0 0.68 0 0 Z " fill="#83FEE3" transform="translate(224,367)"/>
<path d="M0 0 C0.66 0.33 1.32 0.66 2 1 C-0.41556126 4.19199167 -2.68003538 6.74716687 -6 9 C-5.67 7.35 -5.34 5.7 -5 4 C-4.34 4 -3.68 4 -3 4 C-3 3.34 -3 2.68 -3 2 C-2.01 1.34 -1.02 0.68 0 0 Z " fill="#9EFEE8" transform="translate(408,334)"/>
<path d="M0 0 C0.66 0.33 1.32 0.66 2 1 C1.34 2.98 0.68 4.96 0 7 C-0.99 6.67 -1.98 6.34 -3 6 C-3 6.99 -3 7.98 -3 9 C-3.66 9 -4.32 9 -5 9 C-3.7508258 5.54074837 -2.32472205 2.85306797 0 0 Z " fill="#93FEE5" transform="translate(128,327)"/>
<path d="M0 0 C3.99455527 0.61454696 6.74466336 2.70646737 10 5 C9.67 5.66 9.34 6.32 9 7 C8.38125 6.67 7.7625 6.34 7.125 6 C5.08981656 4.85806765 5.08981656 4.85806765 3 5 C2.87625 4.360625 2.7525 3.72125 2.625 3.0625 C2.315625 2.0415625 2.315625 2.0415625 2 1 C1.34 0.67 0.68 0.34 0 0 Z " fill="#94FEE5" transform="translate(349,416)"/>
<path d="M0 0 C0.66 0.33 1.32 0.66 2 1 C1.04882866 2.1725131 0.08882991 3.33787015 -0.875 4.5 C-1.40867188 5.1496875 -1.94234375 5.799375 -2.4921875 6.46875 C-2.98976562 6.9740625 -3.48734375 7.479375 -4 8 C-4.66 8 -5.32 8 -6 8 C-4.55746343 4.63408134 -2.66735273 2.48952921 0 0 Z " fill="#86FEE3" transform="translate(139,58)"/>
<path d="M0 0 C0.66 0.33 1.32 0.66 2 1 C2 1.99 2 2.98 2 4 C1.195625 4.268125 0.39125 4.53625 -0.4375 4.8125 C-1.283125 5.204375 -2.12875 5.59625 -3 6 C-3.33 6.99 -3.66 7.98 -4 9 C-3.46930939 5.17902761 -2.50298434 2.93828597 0 0 Z " fill="#96FEE6" transform="translate(62,144)"/>
<path d="M0 0 C-0.8125 2.4375 -0.8125 2.4375 -2 5 C-2.99 5.33 -3.98 5.66 -5 6 C-5 4.35 -5 2.7 -5 1 C-3 0 -3 0 0 0 Z " fill="#5FFEDA" transform="translate(163,83)"/>
<path d="M0 0 C0.66 0.33 1.32 0.66 2 1 C0.9024777 3.99324263 0.32317108 4.84610901 -2.625 6.25 C-3.40875 6.4975 -4.1925 6.745 -5 7 C-3.75023244 3.34683329 -3.32901247 2.21934164 0 0 Z " fill="#7FFEE0" transform="translate(334,418)"/>
<path d="M0 0 C2.475 0.99 2.475 0.99 5 2 C5.33 1.34 5.66 0.68 6 0 C6.66 1.98 7.32 3.96 8 6 C4.08597051 4.73058503 2.20927127 3.48832306 0 0 Z " fill="#91FEE5" transform="translate(128,370)"/>
<path d="M0 0 C-1.45255699 3.82946843 -3.42895561 5.12050295 -7 7 C-4.60526316 0 -4.60526316 0 0 0 Z " fill="#9DFEE9" transform="translate(410,238)"/>
<path d="M0 0 C1.7074998 1.28062485 3.37373596 2.61767557 5 4 C5 4.66 5 5.32 5 6 C4.01 6.33 3.02 6.66 2 7 C2 6.34 2 5.68 2 5 C1.34 4.67 0.68 4.34 0 4 C0 2.68 0 1.36 0 0 Z " fill="#71FEDF" transform="translate(364,328)"/>
<path d="M0 0 C0.66 0.33 1.32 0.66 2 1 C1.34 2.65 0.68 4.3 0 6 C-1.32 5.67 -2.64 5.34 -4 5 C-3.67 4.01 -3.34 3.02 -3 2 C-2.34 2 -1.68 2 -1 2 C-0.67 1.34 -0.34 0.68 0 0 Z " fill="#1AFECD" transform="translate(28,257)"/>
</svg>